@startuml

title UML-діаграма розгортання ПП

left to right direction

skinparam componentStyle uml1

node "<<Desktop>>" as dk {
    node "<<Operating System Windows/Linux>>" {
        node "<<Web Browser>>" {
            component [*.js]
            component [*.html5]
        }
    }
}

interface Keyboard

interface Mouse

Keyboard -- dk

Mouse -- dk

node "<<Server 1>>" as serv1 {
	node "<<Operating System Linux>>" as l1 {
	    node "<<Web Server Nginx>>" {
		}
	}
}

dk <--> serv1 : HTTP

node "<<Server 2>>" as serv2 {
	node "<<Operating System Linux>>" as l2 {
	    node "<<Application Server uWSGI>>" as uwsgi {
	    }
		  node "<<Django>>" as django{
		  }
	}
}

uwsgi <--> django : WSGI

serv1 <--> serv2 : Socket

node "<<Server 3>>" as serv3 {
	node "<<Operating System Linux>>" as l3 {
	    node "<<Database Server PostgreSQL>>" as db {
	      database PostgreSQL 
	    }
	}
}

serv2 <--> serv3 : TCP/IP

@enduml